<svg xmlns="http://www.w3.org/2000/svg" xmlns:xlink="http://www.w3.org/1999/xlink" width="1000" zoomAndPan="magnify" viewBox="0 0 750 749.999995" height="1000" preserveAspectRatio="xMidYMid meet" version="1.0"><defs><g/><clipPath id="56b4d0d58c"><path d="M 0 136.578125 L 258.738281 136.578125 L 258.738281 333.828125 L 0 333.828125 Z M 0 136.578125 " clip-rule="nonzero"/></clipPath></defs><g clip-path="url(#56b4d0d58c)"><path fill="#ffffff" d="M 257.085938 332.21875 C 241.480469 321.484375 222.359375 317.710938 204.09375 314.042969 C 204.039062 293.527344 204.199219 273.015625 203.878906 252.5 L 204.039062 252.023438 C 210.964844 252.183594 217.886719 252.074219 224.863281 252.074219 C 224.863281 248.410156 224.917969 244.742188 224.8125 241.074219 C 224.332031 240.808594 223.425781 240.222656 222.945312 239.90625 C 215.542969 235.496094 208.40625 230.710938 201.109375 226.195312 C 190.351562 219.390625 179.59375 212.484375 168.78125 205.785156 C 162.550781 201.589844 156.105469 197.707031 149.765625 193.671875 C 147.15625 192.023438 144.546875 190.375 141.9375 188.675781 C 142.46875 187.1875 142.949219 185.699219 143.535156 184.210938 C 145.1875 180.597656 147.476562 176.984375 151.097656 175.070312 C 154.558594 172.945312 158.765625 173.101562 162.65625 173.210938 C 167.660156 174.007812 172.667969 175.972656 176.183594 179.800781 C 177.25 181.234375 178.207031 182.667969 179.21875 184.15625 C 186.410156 184.050781 193.601562 184.316406 200.789062 184.105469 C 202.761719 184.261719 203.933594 182.242188 204.253906 180.542969 C 207.074219 168.054688 207.820312 154.875 204.996094 142.277344 C 204.464844 140.046875 203.667969 136.910156 200.738281 137.070312 C 193.492188 136.804688 186.25 137.019531 178.953125 137.019531 C 173.894531 144.617188 164.519531 149.984375 155.199219 148.230469 C 149.019531 147.222656 143.800781 143.554688 139.113281 139.726562 C 136.078125 136.910156 131.605469 138.082031 127.824219 137.867188 C 117.917969 138.242188 107.742188 136.699219 98.15625 139.835938 C 84.949219 144.03125 73.019531 151.6875 62.898438 161.09375 C 51.605469 171.773438 40.847656 184.6875 38.292969 200.527344 C 38.292969 201.164062 38.34375 202.386719 38.34375 202.96875 C 41.859375 203.234375 45.375 203.183594 48.890625 203.078125 C 50.488281 200.152344 52.140625 197.335938 54.164062 194.679688 C 58.902344 188.675781 65.027344 183.890625 71.578125 180.011719 C 79.621094 175.8125 88.78125 171.722656 98.105469 173.527344 C 104.015625 174.589844 107.691406 179.800781 109.980469 184.953125 C 110.195312 186.28125 110.355469 187.613281 110.566406 188.992188 C 96.71875 197.390625 83.242188 206.320312 69.503906 214.820312 C 56.027344 223.539062 42.394531 232.039062 28.8125 240.648438 L 27.90625 241.234375 C 27.585938 244.902344 27.691406 248.515625 27.691406 252.183594 C 34.617188 251.757812 41.488281 252.074219 48.410156 251.917969 C 48.359375 272.324219 48.519531 292.730469 48.199219 313.085938 L 48.144531 313.671875 C 29.132812 318.1875 8.519531 321.484375 -7.511719 333.707031 C 11.183594 327.273438 30.621094 323.128906 50.167969 320.417969 C 65.882812 318.1875 81.753906 317.019531 97.570312 316.007812 C 128.355469 314.679688 159.246094 315.582031 189.925781 318.878906 C 213.253906 321.75 236.527344 325.789062 258.738281 333.546875 C 258.363281 333.226562 257.511719 332.589844 257.085938 332.21875 Z M 124.519531 195.847656 C 130.113281 196.273438 136.292969 194.46875 141.191406 197.976562 C 142.523438 201.640625 142.148438 205.628906 142.257812 209.507812 C 142.203125 215.9375 142.097656 222.367188 142.257812 228.796875 C 142.148438 236.71875 141.992188 244.6875 142.257812 252.605469 C 141.992188 270.890625 142.203125 289.171875 142.097656 307.453125 C 142.042969 307.503906 141.9375 307.503906 141.882812 307.558594 L 137.089844 307.558594 C 136.878906 307.503906 136.609375 307.453125 136.453125 307.453125 C 136.558594 295.496094 136.398438 283.484375 136.503906 271.527344 C 129.953125 271.3125 123.402344 271.472656 116.851562 271.472656 C 116.851562 283.484375 116.796875 295.546875 116.796875 307.558594 L 110.726562 307.558594 C 110.78125 271.953125 110.671875 236.34375 110.621094 200.792969 C 112.429688 194.625 119.566406 195.796875 124.519531 195.847656 Z M 82.765625 286.566406 C 78.34375 286.460938 73.976562 286.511719 69.554688 286.460938 C 69.554688 282.101562 69.554688 277.746094 69.554688 273.386719 C 73.976562 273.386719 78.398438 273.441406 82.816406 273.332031 C 82.976562 277.746094 83.085938 282.15625 82.765625 286.566406 Z M 82.925781 269.71875 C 78.449219 269.773438 73.921875 269.773438 69.449219 269.613281 C 69.554688 265.308594 69.554688 260.949219 69.503906 256.644531 C 73.816406 256.59375 78.183594 256.488281 82.550781 256.644531 C 82.65625 256.804688 82.925781 257.125 83.03125 257.285156 C 82.976562 261.375 82.871094 265.519531 82.925781 269.71875 Z M 99.96875 286.460938 L 86.972656 286.460938 C 86.917969 282.101562 86.867188 277.746094 86.867188 273.386719 C 91.234375 273.386719 95.601562 273.386719 99.96875 273.386719 C 100.019531 277.746094 100.019531 282.101562 99.96875 286.460938 Z M 100.019531 269.71875 C 95.707031 269.667969 91.394531 269.667969 87.078125 269.773438 C 86.917969 265.574219 86.867188 261.324219 86.757812 257.125 L 86.972656 256.539062 C 91.394531 256.699219 95.8125 256.699219 100.234375 256.699219 L 100.394531 257.070312 C 99.96875 261.269531 99.96875 265.519531 100.019531 269.71875 Z M 166.597656 286.671875 L 152.855469 286.671875 L 152.855469 272.960938 L 166.597656 272.960938 Z M 166.597656 270.039062 L 152.855469 270.039062 L 152.855469 256.328125 L 166.597656 256.328125 Z M 183.800781 286.671875 L 170.058594 286.671875 L 170.058594 272.960938 L 183.800781 272.960938 Z M 183.800781 270.039062 L 170.058594 270.039062 L 170.058594 256.328125 L 183.800781 256.328125 Z M 183.800781 270.039062 " fill-opacity="1" fill-rule="nonzero"/></g><g fill="#ffffff" fill-opacity="1"><g transform="translate(255.598335, 302.816064)"><g><path d="M 57.515625 -46.25 L 57.515625 -74.140625 L 72.109375 -74.140625 L 72.109375 0 L 57.515625 0 L 57.515625 -33.78125 L 24.296875 -33.78125 L 24.296875 0 L 9.640625 0 L 9.640625 -74.140625 L 24.296875 -74.140625 L 24.296875 -46.25 Z M 57.515625 -46.25 "/></g></g></g><g fill="#ffffff" fill-opacity="1"><g transform="translate(337.391578, 302.816064)"><g><path d="M 32.5 1.0625 C 27.03125 1.0625 22.222656 -0.0625 18.078125 -2.3125 C 13.929688 -4.5625 10.71875 -7.859375 8.4375 -12.203125 C 6.15625 -16.546875 5.015625 -21.789062 5.015625 -27.9375 C 5.015625 -34.09375 6.15625 -39.347656 8.4375 -43.703125 C 10.71875 -48.066406 13.929688 -51.375 18.078125 -53.625 C 22.222656 -55.875 27.03125 -57 32.5 -57 C 37.976562 -57 42.785156 -55.875 46.921875 -53.625 C 51.066406 -51.375 54.289062 -48.066406 56.59375 -43.703125 C 58.894531 -39.347656 60.046875 -34.09375 60.046875 -27.9375 C 60.046875 -21.789062 58.894531 -16.546875 56.59375 -12.203125 C 54.289062 -7.859375 51.066406 -4.5625 46.921875 -2.3125 C 42.785156 -0.0625 37.976562 1.0625 32.5 1.0625 Z M 32.5 -10.859375 C 41.195312 -10.859375 45.546875 -16.550781 45.546875 -27.9375 C 45.546875 -33.851562 44.425781 -38.1875 42.1875 -40.9375 C 39.957031 -43.695312 36.726562 -45.078125 32.5 -45.078125 C 23.8125 -45.078125 19.46875 -39.363281 19.46875 -27.9375 C 19.46875 -16.550781 23.8125 -10.859375 32.5 -10.859375 Z M 32.5 -10.859375 "/></g></g></g><g fill="#ffffff" fill-opacity="1"><g transform="translate(402.400219, 302.816064)"><g><path d="M 8.0625 0 L 8.0625 -55.9375 L 21.546875 -55.9375 L 21.546875 -48.4375 L 22.625 -48.234375 C 24.445312 -51.234375 26.582031 -53.441406 29.03125 -54.859375 C 31.476562 -56.285156 34.613281 -57 38.4375 -57 C 42.664062 -57 46.0625 -56.160156 48.625 -54.484375 C 51.195312 -52.816406 53.078125 -50.375 54.265625 -47.15625 L 55.328125 -47.15625 C 57.046875 -50.507812 59.265625 -52.988281 61.984375 -54.59375 C 64.710938 -56.195312 68.101562 -57 72.15625 -57 C 83.757812 -57 89.5625 -50.539062 89.5625 -37.625 L 89.5625 0 L 75.515625 0 L 75.515625 -35.859375 C 75.515625 -39.128906 74.867188 -41.492188 73.578125 -42.953125 C 72.296875 -44.410156 70.234375 -45.140625 67.390625 -45.140625 C 59.679688 -45.140625 55.828125 -39.984375 55.828125 -29.671875 L 55.828125 0 L 41.78125 0 L 41.78125 -35.859375 C 41.78125 -39.128906 41.128906 -41.492188 39.828125 -42.953125 C 38.523438 -44.410156 36.457031 -45.140625 33.625 -45.140625 C 30.007812 -45.140625 27.1875 -43.925781 25.15625 -41.5 C 23.125 -39.082031 22.109375 -35.238281 22.109375 -29.96875 L 22.109375 0 Z M 8.0625 0 "/></g></g></g><g fill="#ffffff" fill-opacity="1"><g transform="translate(499.152538, 302.816064)"><g><path d="M 55.28125 -24.796875 L 19.328125 -24.796875 C 19.734375 -19.929688 21.117188 -16.390625 23.484375 -14.171875 C 25.847656 -11.960938 29.078125 -10.859375 33.171875 -10.859375 C 36.378906 -10.859375 38.976562 -11.457031 40.96875 -12.65625 C 42.96875 -13.851562 44.578125 -15.671875 45.796875 -18.109375 L 46.859375 -18.109375 L 56.1875 -12.125 C 54.363281 -8.195312 51.609375 -5.015625 47.921875 -2.578125 C 44.234375 -0.148438 39.316406 1.0625 33.171875 1.0625 C 27.390625 1.0625 22.390625 -0.0351562 18.171875 -2.234375 C 13.960938 -4.429688 10.71875 -7.703125 8.4375 -12.046875 C 6.15625 -16.390625 5.015625 -21.6875 5.015625 -27.9375 C 5.015625 -34.300781 6.210938 -39.660156 8.609375 -44.015625 C 11.015625 -48.378906 14.265625 -51.632812 18.359375 -53.78125 C 22.453125 -55.925781 27.050781 -57 32.15625 -57 C 40.0625 -57 46.117188 -54.898438 50.328125 -50.703125 C 54.535156 -46.515625 56.640625 -40.363281 56.640625 -32.25 C 56.640625 -29.3125 56.539062 -27.03125 56.34375 -25.40625 Z M 43.203125 -33.875 C 43.066406 -38.132812 42.078125 -41.234375 40.234375 -43.171875 C 38.398438 -45.117188 35.707031 -46.09375 32.15625 -46.09375 C 25.050781 -46.09375 20.875 -42.019531 19.625 -33.875 Z M 43.203125 -33.875 "/></g></g></g><g fill="#ffffff" fill-opacity="1"><g transform="translate(559.952339, 302.816064)"><g><path d="M 38.28125 -74.140625 C 43.59375 -74.140625 48.132812 -73.164062 51.90625 -71.21875 C 55.675781 -69.28125 58.523438 -66.5625 60.453125 -63.0625 C 62.378906 -59.5625 63.34375 -55.492188 63.34375 -50.859375 C 63.34375 -46.234375 62.378906 -42.175781 60.453125 -38.6875 C 58.523438 -35.207031 55.675781 -32.492188 51.90625 -30.546875 C 48.132812 -28.609375 43.59375 -27.640625 38.28125 -27.640625 L 24.296875 -27.640625 L 24.296875 0 L 9.640625 0 L 9.640625 -74.140625 Z M 36.359375 -39.25 C 44.503906 -39.25 48.578125 -43.117188 48.578125 -50.859375 C 48.578125 -58.640625 44.503906 -62.53125 36.359375 -62.53125 L 24.296875 -62.53125 L 24.296875 -39.25 Z M 36.359375 -39.25 "/></g></g></g><g fill="#ffffff" fill-opacity="1"><g transform="translate(627.699254, 302.816064)"><g><path d="M 8.0625 0 L 8.0625 -55.9375 L 21.703125 -55.9375 L 21.703125 -47.625 L 22.765625 -47.421875 C 24.117188 -50.523438 25.894531 -52.800781 28.09375 -54.25 C 30.289062 -55.707031 32.960938 -56.4375 36.109375 -56.4375 C 39.285156 -56.4375 41.703125 -55.894531 43.359375 -54.8125 L 40.96875 -42.703125 L 39.90625 -42.5 C 39 -42.875 38.117188 -43.144531 37.265625 -43.3125 C 36.421875 -43.476562 35.394531 -43.5625 34.1875 -43.5625 C 30.257812 -43.5625 27.265625 -42.179688 25.203125 -39.421875 C 23.140625 -36.671875 22.109375 -32.253906 22.109375 -26.171875 L 22.109375 0 Z M 8.0625 0 "/></g></g></g><g fill="#ffffff" fill-opacity="1"><g transform="translate(671.56235, 302.816064)"><g><path d="M 32.5 1.0625 C 27.03125 1.0625 22.222656 -0.0625 18.078125 -2.3125 C 13.929688 -4.5625 10.71875 -7.859375 8.4375 -12.203125 C 6.15625 -16.546875 5.015625 -21.789062 5.015625 -27.9375 C 5.015625 -34.09375 6.15625 -39.347656 8.4375 -43.703125 C 10.71875 -48.066406 13.929688 -51.375 18.078125 -53.625 C 22.222656 -55.875 27.03125 -57 32.5 -57 C 37.976562 -57 42.785156 -55.875 46.921875 -53.625 C 51.066406 -51.375 54.289062 -48.066406 56.59375 -43.703125 C 58.894531 -39.347656 60.046875 -34.09375 60.046875 -27.9375 C 60.046875 -21.789062 58.894531 -16.546875 56.59375 -12.203125 C 54.289062 -7.859375 51.066406 -4.5625 46.921875 -2.3125 C 42.785156 -0.0625 37.976562 1.0625 32.5 1.0625 Z M 32.5 -10.859375 C 41.195312 -10.859375 45.546875 -16.550781 45.546875 -27.9375 C 45.546875 -33.851562 44.425781 -38.1875 42.1875 -40.9375 C 39.957031 -43.695312 36.726562 -45.078125 32.5 -45.078125 C 23.8125 -45.078125 19.46875 -39.363281 19.46875 -27.9375 C 19.46875 -16.550781 23.8125 -10.859375 32.5 -10.859375 Z M 32.5 -10.859375 "/></g></g></g></svg>