<svg xmlns="http://www.w3.org/2000/svg" xmlns:xlink="http://www.w3.org/1999/xlink" width="1000" zoomAndPan="magnify" viewBox="0 0 750 749.999995" height="1000" preserveAspectRatio="xMidYMid meet" version="1.0"><defs><g/><clipPath id="5f6b836caa"><path d="M 0 248 L 266.25 248 L 266.25 445 L 0 445 Z M 0 248 " clip-rule="nonzero"/></clipPath></defs><g clip-path="url(#5f6b836caa)"><path fill="#000000" d="M 264.597656 443.414062 C 248.992188 432.679688 229.871094 428.90625 211.605469 425.238281 C 211.550781 404.722656 211.710938 384.210938 211.390625 363.695312 L 211.550781 363.21875 C 218.476562 363.378906 225.398438 363.273438 232.375 363.273438 C 232.375 359.605469 232.429688 355.9375 232.324219 352.269531 C 231.84375 352.003906 230.9375 351.421875 230.457031 351.101562 C 223.054688 346.691406 215.917969 341.90625 208.621094 337.390625 C 197.863281 330.585938 187.105469 323.679688 176.292969 316.984375 C 170.0625 312.785156 163.617188 308.90625 157.277344 304.867188 C 154.667969 303.21875 152.058594 301.570312 149.449219 299.871094 C 149.980469 298.382812 150.460938 296.894531 151.046875 295.40625 C 152.699219 291.792969 154.988281 288.179688 158.609375 286.265625 C 162.070312 284.140625 166.28125 284.300781 170.167969 284.40625 C 175.175781 285.203125 180.179688 287.167969 183.695312 290.996094 C 184.761719 292.429688 185.71875 293.863281 186.730469 295.351562 C 193.921875 295.246094 201.113281 295.511719 208.300781 295.300781 C 210.273438 295.460938 211.445312 293.441406 211.765625 291.738281 C 214.585938 279.25 215.332031 266.070312 212.511719 253.476562 C 211.976562 251.242188 211.179688 248.109375 208.25 248.265625 C 201.003906 248 193.761719 248.214844 186.464844 248.214844 C 181.40625 255.8125 172.03125 261.179688 162.710938 259.425781 C 156.53125 258.417969 151.3125 254.75 146.625 250.925781 C 143.589844 248.109375 139.117188 249.277344 135.335938 249.0625 C 125.429688 249.4375 115.257812 247.894531 105.667969 251.03125 C 92.460938 255.230469 80.53125 262.882812 70.410156 272.289062 C 59.121094 282.96875 48.359375 295.882812 45.804688 311.722656 C 45.804688 312.359375 45.855469 313.582031 45.855469 314.167969 C 49.371094 314.433594 52.886719 314.378906 56.402344 314.273438 C 58 311.347656 59.652344 308.53125 61.675781 305.875 C 66.417969 299.871094 72.539062 295.085938 79.09375 291.207031 C 87.132812 287.007812 96.296875 282.917969 105.617188 284.722656 C 111.527344 285.785156 115.203125 290.996094 117.492188 296.148438 C 117.707031 297.480469 117.867188 298.808594 118.078125 300.1875 C 104.230469 308.585938 90.757812 317.515625 77.015625 326.015625 C 63.539062 334.734375 49.90625 343.234375 36.324219 351.84375 L 35.417969 352.429688 C 35.097656 356.097656 35.207031 359.710938 35.207031 363.378906 C 42.128906 362.953125 49 363.273438 55.921875 363.113281 C 55.871094 383.519531 56.03125 403.925781 55.710938 424.28125 L 55.65625 424.867188 C 36.644531 429.382812 16.03125 432.679688 0 444.902344 C 18.695312 438.472656 38.132812 434.324219 57.679688 431.617188 C 73.394531 429.382812 89.265625 428.214844 105.082031 427.203125 C 135.867188 425.875 166.757812 426.777344 197.4375 430.074219 C 220.765625 432.945312 244.039062 436.984375 266.25 444.742188 C 265.878906 444.421875 265.023438 443.785156 264.597656 443.414062 Z M 132.03125 307.042969 C 137.625 307.46875 143.804688 305.664062 148.703125 309.171875 C 150.035156 312.835938 149.664062 316.824219 149.769531 320.703125 C 149.714844 327.132812 149.609375 333.5625 149.769531 339.996094 C 149.664062 347.914062 149.503906 355.882812 149.769531 363.804688 C 149.503906 382.085938 149.714844 400.367188 149.609375 418.648438 C 149.554688 418.703125 149.449219 418.703125 149.394531 418.753906 L 144.601562 418.753906 C 144.390625 418.703125 144.125 418.648438 143.964844 418.648438 C 144.070312 406.691406 143.910156 394.679688 144.015625 382.722656 C 137.464844 382.511719 130.914062 382.667969 124.363281 382.667969 C 124.363281 394.679688 124.308594 406.742188 124.308594 418.753906 L 118.238281 418.753906 C 118.292969 383.148438 118.183594 347.539062 118.132812 311.988281 C 119.941406 305.824219 127.078125 306.992188 132.03125 307.042969 Z M 90.277344 397.761719 C 85.855469 397.65625 81.488281 397.710938 77.066406 397.65625 C 77.066406 393.296875 77.066406 388.941406 77.066406 384.582031 C 81.488281 384.582031 85.910156 384.636719 90.328125 384.53125 C 90.488281 388.941406 90.597656 393.351562 90.277344 397.761719 Z M 90.4375 380.914062 C 85.960938 380.96875 81.433594 380.96875 76.960938 380.808594 C 77.066406 376.503906 77.066406 372.148438 77.015625 367.84375 C 81.328125 367.789062 85.695312 367.683594 90.0625 367.84375 C 90.171875 368 90.4375 368.320312 90.542969 368.480469 C 90.488281 372.570312 90.382812 376.71875 90.4375 380.914062 Z M 107.480469 397.65625 L 94.484375 397.65625 C 94.429688 393.296875 94.378906 388.941406 94.378906 384.582031 C 98.746094 384.582031 103.113281 384.582031 107.480469 384.582031 C 107.535156 388.941406 107.535156 393.296875 107.480469 397.65625 Z M 107.535156 380.914062 C 103.21875 380.863281 98.90625 380.863281 94.589844 380.96875 C 94.429688 376.769531 94.378906 372.519531 94.269531 368.320312 L 94.484375 367.734375 C 98.90625 367.894531 103.324219 367.894531 107.746094 367.894531 L 107.90625 368.265625 C 107.480469 372.464844 107.480469 376.71875 107.535156 380.914062 Z M 174.109375 397.867188 L 160.367188 397.867188 L 160.367188 384.15625 L 174.109375 384.15625 Z M 174.109375 381.234375 L 160.367188 381.234375 L 160.367188 367.523438 L 174.109375 367.523438 Z M 191.3125 397.867188 L 177.570312 397.867188 L 177.570312 384.15625 L 191.3125 384.15625 Z M 191.3125 381.234375 L 177.570312 381.234375 L 177.570312 367.523438 L 191.3125 367.523438 Z M 191.3125 381.234375 " fill-opacity="1" fill-rule="nonzero"/></g><g fill="#000000" fill-opacity="1"><g transform="translate(256.888145, 414)"><g><path d="M 57.5 -46.25 L 57.5 -74.125 L 72.109375 -74.125 L 72.109375 0 L 57.5 0 L 57.5 -33.765625 L 24.28125 -33.765625 L 24.28125 0 L 9.640625 0 L 9.640625 -74.125 L 24.28125 -74.125 L 24.28125 -46.25 Z M 57.5 -46.25 "/></g></g></g><g fill="#000000" fill-opacity="1"><g transform="translate(338.662928, 414)"><g><path d="M 32.5 1.0625 C 27.019531 1.0625 22.207031 -0.0546875 18.0625 -2.296875 C 13.925781 -4.546875 10.71875 -7.84375 8.4375 -12.1875 C 6.15625 -16.53125 5.015625 -21.78125 5.015625 -27.9375 C 5.015625 -34.09375 6.15625 -39.347656 8.4375 -43.703125 C 10.71875 -48.066406 13.925781 -51.375 18.0625 -53.625 C 22.207031 -55.875 27.019531 -57 32.5 -57 C 37.976562 -57 42.785156 -55.875 46.921875 -53.625 C 51.066406 -51.375 54.285156 -48.066406 56.578125 -43.703125 C 58.878906 -39.347656 60.03125 -34.09375 60.03125 -27.9375 C 60.03125 -21.78125 58.878906 -16.53125 56.578125 -12.1875 C 54.285156 -7.84375 51.066406 -4.546875 46.921875 -2.296875 C 42.785156 -0.0546875 37.976562 1.0625 32.5 1.0625 Z M 32.5 -10.84375 C 41.1875 -10.84375 45.53125 -16.539062 45.53125 -27.9375 C 45.53125 -33.851562 44.414062 -38.1875 42.1875 -40.9375 C 39.957031 -43.695312 36.726562 -45.078125 32.5 -45.078125 C 23.8125 -45.078125 19.46875 -39.363281 19.46875 -27.9375 C 19.46875 -16.539062 23.8125 -10.84375 32.5 -10.84375 Z M 32.5 -10.84375 "/></g></g></g><g fill="#000000" fill-opacity="1"><g transform="translate(403.656898, 414)"><g><path d="M 8.0625 0 L 8.0625 -55.921875 L 21.546875 -55.921875 L 21.546875 -48.421875 L 22.609375 -48.21875 C 24.441406 -51.226562 26.582031 -53.441406 29.03125 -54.859375 C 31.476562 -56.285156 34.613281 -57 38.4375 -57 C 42.65625 -57 46.050781 -56.160156 48.625 -54.484375 C 51.195312 -52.804688 53.070312 -50.363281 54.25 -47.15625 L 55.3125 -47.15625 C 57.039062 -50.5 59.265625 -52.972656 61.984375 -54.578125 C 64.703125 -56.191406 68.09375 -57 72.15625 -57 C 83.75 -57 89.546875 -50.539062 89.546875 -37.625 L 89.546875 0 L 75.5 0 L 75.5 -35.84375 C 75.5 -39.125 74.851562 -41.488281 73.5625 -42.9375 C 72.28125 -44.394531 70.222656 -45.125 67.390625 -45.125 C 59.679688 -45.125 55.828125 -39.96875 55.828125 -29.65625 L 55.828125 0 L 41.78125 0 L 41.78125 -35.84375 C 41.78125 -39.125 41.128906 -41.488281 39.828125 -42.9375 C 38.523438 -44.394531 36.457031 -45.125 33.625 -45.125 C 30 -45.125 27.171875 -43.914062 25.140625 -41.5 C 23.117188 -39.082031 22.109375 -35.238281 22.109375 -29.96875 L 22.109375 0 Z M 8.0625 0 "/></g></g></g><g fill="#000000" fill-opacity="1"><g transform="translate(500.387393, 414)"><g><path d="M 55.265625 -24.796875 L 19.3125 -24.796875 C 19.71875 -19.929688 21.101562 -16.390625 23.46875 -14.171875 C 25.84375 -11.953125 29.070312 -10.84375 33.15625 -10.84375 C 36.375 -10.84375 38.976562 -11.441406 40.96875 -12.640625 C 42.96875 -13.847656 44.570312 -15.671875 45.78125 -18.109375 L 46.84375 -18.109375 L 56.1875 -12.125 C 54.351562 -8.195312 51.59375 -5.015625 47.90625 -2.578125 C 44.226562 -0.148438 39.3125 1.0625 33.15625 1.0625 C 27.375 1.0625 22.378906 -0.0351562 18.171875 -2.234375 C 13.960938 -4.429688 10.71875 -7.703125 8.4375 -12.046875 C 6.15625 -16.390625 5.015625 -21.6875 5.015625 -27.9375 C 5.015625 -34.289062 6.210938 -39.644531 8.609375 -44 C 11.015625 -48.363281 14.257812 -51.617188 18.34375 -53.765625 C 22.4375 -55.921875 27.035156 -57 32.140625 -57 C 40.054688 -57 46.117188 -54.898438 50.328125 -50.703125 C 54.535156 -46.515625 56.640625 -40.363281 56.640625 -32.25 C 56.640625 -29.3125 56.535156 -27.03125 56.328125 -25.40625 Z M 43.203125 -33.875 C 43.066406 -38.132812 42.078125 -41.234375 40.234375 -43.171875 C 38.390625 -45.117188 35.691406 -46.09375 32.140625 -46.09375 C 25.046875 -46.09375 20.875 -42.019531 19.625 -33.875 Z M 43.203125 -33.875 "/></g></g></g><g fill="#000000" fill-opacity="1"><g transform="translate(561.173485, 414)"><g><path d="M 38.28125 -74.125 C 43.59375 -74.125 48.128906 -73.148438 51.890625 -71.203125 C 55.660156 -69.265625 58.507812 -66.546875 60.4375 -63.046875 C 62.363281 -59.546875 63.328125 -55.484375 63.328125 -50.859375 C 63.328125 -46.222656 62.363281 -42.164062 60.4375 -38.6875 C 58.507812 -35.207031 55.660156 -32.492188 51.890625 -30.546875 C 48.128906 -28.609375 43.59375 -27.640625 38.28125 -27.640625 L 24.28125 -27.640625 L 24.28125 0 L 9.640625 0 L 9.640625 -74.125 Z M 36.359375 -39.25 C 44.503906 -39.25 48.578125 -43.117188 48.578125 -50.859375 C 48.578125 -58.628906 44.503906 -62.515625 36.359375 -62.515625 L 24.28125 -62.515625 L 24.28125 -39.25 Z M 36.359375 -39.25 "/></g></g></g><g fill="#000000" fill-opacity="1"><g transform="translate(628.90511, 414)"><g><path d="M 8.0625 0 L 8.0625 -55.921875 L 21.703125 -55.921875 L 21.703125 -47.609375 L 22.765625 -47.40625 C 24.117188 -50.519531 25.894531 -52.800781 28.09375 -54.25 C 30.289062 -55.707031 32.960938 -56.4375 36.109375 -56.4375 C 39.285156 -56.4375 41.703125 -55.894531 43.359375 -54.8125 L 40.96875 -42.6875 L 39.90625 -42.484375 C 38.988281 -42.859375 38.109375 -43.128906 37.265625 -43.296875 C 36.421875 -43.472656 35.390625 -43.5625 34.171875 -43.5625 C 30.253906 -43.5625 27.265625 -42.179688 25.203125 -39.421875 C 23.140625 -36.671875 22.109375 -32.25 22.109375 -26.15625 L 22.109375 0 Z M 8.0625 0 "/></g></g></g><g fill="#000000" fill-opacity="1"><g transform="translate(672.758272, 414)"><g><path d="M 32.5 1.0625 C 27.019531 1.0625 22.207031 -0.0546875 18.0625 -2.296875 C 13.925781 -4.546875 10.71875 -7.84375 8.4375 -12.1875 C 6.15625 -16.53125 5.015625 -21.78125 5.015625 -27.9375 C 5.015625 -34.09375 6.15625 -39.347656 8.4375 -43.703125 C 10.71875 -48.066406 13.925781 -51.375 18.0625 -53.625 C 22.207031 -55.875 27.019531 -57 32.5 -57 C 37.976562 -57 42.785156 -55.875 46.921875 -53.625 C 51.066406 -51.375 54.285156 -48.066406 56.578125 -43.703125 C 58.878906 -39.347656 60.03125 -34.09375 60.03125 -27.9375 C 60.03125 -21.78125 58.878906 -16.53125 56.578125 -12.1875 C 54.285156 -7.84375 51.066406 -4.546875 46.921875 -2.296875 C 42.785156 -0.0546875 37.976562 1.0625 32.5 1.0625 Z M 32.5 -10.84375 C 41.1875 -10.84375 45.53125 -16.539062 45.53125 -27.9375 C 45.53125 -33.851562 44.414062 -38.1875 42.1875 -40.9375 C 39.957031 -43.695312 36.726562 -45.078125 32.5 -45.078125 C 23.8125 -45.078125 19.46875 -39.363281 19.46875 -27.9375 C 19.46875 -16.539062 23.8125 -10.84375 32.5 -10.84375 Z M 32.5 -10.84375 "/></g></g></g></svg>